<mxfile host="app.diagrams.net" agent="Mozilla/5.0 (Windows NT 10.0; Win64; x64) AppleWebKit/537.36 (KHTML, like Gecko) Chrome/140.0.0.0 Safari/537.36" version="28.2.5">
  <diagram id="er-logico-arrows" name="Modelo Lógico com Setas">
    <mxGraphModel dx="2066" dy="743" grid="1" gridSize="10" guides="1" tooltips="1" connect="1" arrows="1" fold="1" page="1" pageScale="1" pageWidth="1654" pageHeight="1169" math="0" shadow="0">
      <root>
        <mxCell id="0" />
        <mxCell id="1" parent="0" />
        <mxCell id="n1" value="clientes&#xa;PK id_cliente : INT&#xa;nome : VARCHAR(120)&#xa;email : VARCHAR(160) UNIQUE&#xa;telefone : VARCHAR(20)&#xa;cpf : VARCHAR(14) UNIQUE&#xa;endereco : VARCHAR(160)&#xa;cidade : VARCHAR(100)&#xa;uf : CHAR(2)&#xa;cep : VARCHAR(9)" style="shape=rectangle;rounded=1;whiteSpace=wrap;html=1;fontSize=12;spacing=6;align=left;verticalAlign=top;" parent="1" vertex="1">
          <mxGeometry x="60" y="60" width="230" height="220" as="geometry" />
        </mxCell>
        <mxCell id="n2" value="pedidos&#xa;PK id_pedido : INT&#xa;FK id_cliente -&gt; clientes.id_cliente&#xa;data_pedido : DATETIME&#xa;status : VARCHAR(20)" style="shape=rectangle;rounded=1;whiteSpace=wrap;html=1;fontSize=12;spacing=6;align=left;verticalAlign=top;" parent="1" vertex="1">
          <mxGeometry x="360" y="80" width="230" height="150" as="geometry" />
        </mxCell>
        <mxCell id="n3" value="produtos&#xa;PK id_produto : INT&#xa;nome : VARCHAR(120)&#xa;categoria : VARCHAR(60)&#xa;preco : DECIMAL(10,2)&#xa;estoque : INT&#xa;ativo : TINYINT(1)" style="shape=rectangle;rounded=1;whiteSpace=wrap;html=1;fontSize=12;spacing=6;align=left;verticalAlign=top;" parent="1" vertex="1">
          <mxGeometry x="700" y="60" width="230" height="150" as="geometry" />
        </mxCell>
        <mxCell id="n4" value="itens_pedido&#xa;PK id_item : INT&#xa;FK id_pedido -&gt; pedidos.id_pedido&#xa;FK id_produto -&gt; produtos.id_produto&#xa;quantidade : INT&#xa;preco_unit : DECIMAL(10,2)&#xa;total_item : DECIMAL(10,2)" style="shape=rectangle;rounded=1;whiteSpace=wrap;html=1;fontSize=12;spacing=6;align=left;verticalAlign=top;" parent="1" vertex="1">
          <mxGeometry x="360" y="260" width="230" height="180" as="geometry" />
        </mxCell>
        <mxCell id="n5" value="pagamentos&#xa;PK id_pagamento : INT&#xa;FK id_pedido -&gt; pedidos.id_pedido&#xa;metodo : ENUM(&#39;cartao&#39;,&#39;pix&#39;,&#39;boleto&#39;)&#xa;status_pagamento : ENUM(&#39;pendente&#39;,&#39;pago&#39;,&#39;falhou&#39;,&#39;estornado&#39;)&#xa;valor : DECIMAL(10,2)&#xa;data_pagamento : DATETIME NULL&#xa;transacao : VARCHAR(120) NULL" style="shape=rectangle;rounded=1;whiteSpace=wrap;html=1;fontSize=12;spacing=6;align=left;verticalAlign=top;" parent="1" vertex="1">
          <mxGeometry x="360" y="480" width="270" height="180" as="geometry" />
        </mxCell>
        <mxCell id="e1" value="" style="endArrow=classic;strokeWidth=2;" parent="1" source="n1" target="n2" edge="1">
          <mxGeometry relative="1" as="geometry" />
        </mxCell>
        <mxCell id="l1" value="1 → N" style="text;html=1;strokeColor=none;fillColor=none;resizable=0;rotatable=0;whiteSpace=wrap;fontSize=12;" parent="1" vertex="1">
          <mxGeometry x="300" y="100" width="90" height="20" as="geometry" />
        </mxCell>
        <mxCell id="e2" value="" style="endArrow=classic;strokeWidth=2;" parent="1" source="n2" target="n4" edge="1">
          <mxGeometry relative="1" as="geometry" />
        </mxCell>
        <mxCell id="l2" value="1 → N" style="text;html=1;strokeColor=none;fillColor=none;resizable=0;rotatable=0;whiteSpace=wrap;fontSize=12;" parent="1" vertex="1">
          <mxGeometry x="400" y="230" width="90" height="20" as="geometry" />
        </mxCell>
        <mxCell id="e3" value="" style="endArrow=classic;strokeWidth=2;" parent="1" source="n3" target="n4" edge="1">
          <mxGeometry relative="1" as="geometry" />
        </mxCell>
        <mxCell id="l3" value="1 → N" style="text;html=1;strokeColor=none;fillColor=none;resizable=0;rotatable=0;whiteSpace=wrap;fontSize=12;" parent="1" vertex="1">
          <mxGeometry x="663" y="230" width="90" height="20" as="geometry" />
        </mxCell>
        <mxCell id="e4" value="" style="endArrow=classic;strokeWidth=2;" parent="1" source="n2" target="n5" edge="1">
          <mxGeometry relative="1" as="geometry" />
        </mxCell>
        <mxCell id="l4" value="1 → 1" style="text;html=1;strokeColor=none;fillColor=none;resizable=0;rotatable=0;whiteSpace=wrap;fontSize=12;" parent="1" vertex="1">
          <mxGeometry x="400" y="450" width="90" height="20" as="geometry" />
        </mxCell>
      </root>
    </mxGraphModel>
  </diagram>
</mxfile>
